# xmcd CD database file
#
# Track frame offsets:
#	150
#	17192
#	38195
#	78227
#	96692
#	102487
#	119975
#	143790
#	161425
#	179290
#
# Disc length: 2697 seconds
#
# Revision: 1
# Processed by: cddbd v1.5.1PL2 Copyright (c) Steve Scherf et al.
# Submitted via: CDex 1.51
#
DISCID=8b0a870a
DTITLE=Various Artist - Blessed Blackness
DYEAR=1900
DGENRE=Jazz
TTITLE0=Blessed Blackness - The Jbs
TTITLE1=Been to canaan - Alice Babs wits Nil's lindeberg's orchestra
TTITLE2=Brother John (live) - Yusef Lateef
TTITLE3=Fa da Bahia - Joyce
TTITLE4=The addicts Psalm - The cross and the switchblade
TTITLE5=You've got that thing - Sterling Harrison
TTITLE6=How could you break my heart - Bobby Womack
TTITLE7=Unwanted company - Jeannie Reynolds
TTITLE8=Do you care (like you say you do) -Hard cover (feat. Elanie Alexander)
TTITLE9=Inner city blues (make me wanna holler) - The Chi-lites
EXTD=
EXTT0=
EXTT1=
EXTT2=
EXTT3=
EXTT4=
EXTT5=
EXTT6=
EXTT7=
EXTT8=
EXTT9=
PLAYORDER=
